<mxfile host="app.diagrams.net" modified="2023-09-30T01:33:12.698Z" agent="Mozilla/5.0 (Windows NT 10.0; Win64; x64) AppleWebKit/537.36 (KHTML, like Gecko) Chrome/117.0.0.0 Safari/537.36" etag="z5gb8y28T28340Wv9qJe" version="22.0.0" type="github">
  <diagram name="Page-1" id="xJ6D-FjHkzA9X418WR1V">
    <mxGraphModel dx="2334" dy="665" grid="1" gridSize="10" guides="1" tooltips="1" connect="1" arrows="1" fold="1" page="1" pageScale="1" pageWidth="827" pageHeight="1169" math="0" shadow="0">
      <root>
        <mxCell id="0" />
        <mxCell id="1" parent="0" />
        <mxCell id="rG8OEWCJURfN_-2mEjIc-116" value="" style="rounded=0;whiteSpace=wrap;html=1;fillColor=#d5e8d4;strokeColor=#82b366;" vertex="1" parent="1">
          <mxGeometry x="480" y="1160" width="920" height="290" as="geometry" />
        </mxCell>
        <mxCell id="rG8OEWCJURfN_-2mEjIc-72" value="" style="edgeStyle=orthogonalEdgeStyle;rounded=0;orthogonalLoop=1;jettySize=auto;html=1;" edge="1" parent="1" source="rG8OEWCJURfN_-2mEjIc-1">
          <mxGeometry relative="1" as="geometry">
            <mxPoint x="590" y="1305.0833333333333" as="targetPoint" />
          </mxGeometry>
        </mxCell>
        <mxCell id="rG8OEWCJURfN_-2mEjIc-1" value="" style="verticalLabelPosition=bottom;html=1;verticalAlign=top;align=center;strokeColor=none;fillColor=#00BEF2;shape=mxgraph.azure.virtual_machine;" vertex="1" parent="1">
          <mxGeometry x="190" y="1230" width="240" height="150" as="geometry" />
        </mxCell>
        <mxCell id="rG8OEWCJURfN_-2mEjIc-78" style="edgeStyle=orthogonalEdgeStyle;rounded=0;orthogonalLoop=1;jettySize=auto;html=1;entryX=0.5;entryY=0;entryDx=0;entryDy=0;" edge="1" parent="1" source="rG8OEWCJURfN_-2mEjIc-2" target="rG8OEWCJURfN_-2mEjIc-77">
          <mxGeometry relative="1" as="geometry" />
        </mxCell>
        <mxCell id="rG8OEWCJURfN_-2mEjIc-2" value="Product&amp;nbsp; Container [5001]" style="rounded=0;whiteSpace=wrap;html=1;" vertex="1" parent="1">
          <mxGeometry x="196" y="1240" width="144" height="30" as="geometry" />
        </mxCell>
        <mxCell id="rG8OEWCJURfN_-2mEjIc-79" style="edgeStyle=orthogonalEdgeStyle;rounded=0;orthogonalLoop=1;jettySize=auto;html=1;entryX=0;entryY=0.25;entryDx=0;entryDy=0;" edge="1" parent="1" source="rG8OEWCJURfN_-2mEjIc-3" target="rG8OEWCJURfN_-2mEjIc-77">
          <mxGeometry relative="1" as="geometry" />
        </mxCell>
        <mxCell id="rG8OEWCJURfN_-2mEjIc-3" value="Order Container [5002]" style="rounded=0;whiteSpace=wrap;html=1;" vertex="1" parent="1">
          <mxGeometry x="196" y="1280" width="60" height="40" as="geometry" />
        </mxCell>
        <mxCell id="rG8OEWCJURfN_-2mEjIc-80" style="edgeStyle=orthogonalEdgeStyle;rounded=0;orthogonalLoop=1;jettySize=auto;html=1;entryX=0.5;entryY=1;entryDx=0;entryDy=0;" edge="1" parent="1" source="rG8OEWCJURfN_-2mEjIc-4" target="rG8OEWCJURfN_-2mEjIc-77">
          <mxGeometry relative="1" as="geometry" />
        </mxCell>
        <mxCell id="rG8OEWCJURfN_-2mEjIc-4" value="Cart Container[5003]" style="rounded=0;whiteSpace=wrap;html=1;" vertex="1" parent="1">
          <mxGeometry x="196" y="1330" width="94" height="40" as="geometry" />
        </mxCell>
        <mxCell id="rG8OEWCJURfN_-2mEjIc-5" value="Pod" style="text;html=1;strokeColor=none;fillColor=none;align=center;verticalAlign=middle;whiteSpace=wrap;rounded=0;" vertex="1" parent="1">
          <mxGeometry x="20" y="1230" width="60" height="30" as="geometry" />
        </mxCell>
        <mxCell id="rG8OEWCJURfN_-2mEjIc-6" value="Product&amp;nbsp; Service - .Net Core" style="rounded=0;whiteSpace=wrap;html=1;" vertex="1" parent="1">
          <mxGeometry x="-4" y="1180" width="134" height="40" as="geometry" />
        </mxCell>
        <mxCell id="rG8OEWCJURfN_-2mEjIc-10" value="" style="edgeStyle=orthogonalEdgeStyle;rounded=0;orthogonalLoop=1;jettySize=auto;html=1;" edge="1" parent="1" target="rG8OEWCJURfN_-2mEjIc-9">
          <mxGeometry relative="1" as="geometry">
            <mxPoint x="290" y="40" as="sourcePoint" />
          </mxGeometry>
        </mxCell>
        <mxCell id="rG8OEWCJURfN_-2mEjIc-8" value="Remote Respository" style="text;html=1;strokeColor=none;fillColor=none;align=center;verticalAlign=middle;whiteSpace=wrap;rounded=0;" vertex="1" parent="1">
          <mxGeometry x="300" y="30" width="60" height="30" as="geometry" />
        </mxCell>
        <mxCell id="rG8OEWCJURfN_-2mEjIc-12" value="" style="edgeStyle=orthogonalEdgeStyle;rounded=0;orthogonalLoop=1;jettySize=auto;html=1;" edge="1" parent="1" source="rG8OEWCJURfN_-2mEjIc-9" target="rG8OEWCJURfN_-2mEjIc-11">
          <mxGeometry relative="1" as="geometry" />
        </mxCell>
        <mxCell id="rG8OEWCJURfN_-2mEjIc-9" value="Clone-&amp;gt;The repo locally" style="whiteSpace=wrap;html=1;" vertex="1" parent="1">
          <mxGeometry x="30" y="150" width="120" height="60" as="geometry" />
        </mxCell>
        <mxCell id="rG8OEWCJURfN_-2mEjIc-14" value="" style="edgeStyle=orthogonalEdgeStyle;rounded=0;orthogonalLoop=1;jettySize=auto;html=1;" edge="1" parent="1" source="rG8OEWCJURfN_-2mEjIc-11" target="rG8OEWCJURfN_-2mEjIc-13">
          <mxGeometry relative="1" as="geometry" />
        </mxCell>
        <mxCell id="rG8OEWCJURfN_-2mEjIc-11" value="We Make change in to the code locally" style="whiteSpace=wrap;html=1;" vertex="1" parent="1">
          <mxGeometry x="230" y="150" width="120" height="60" as="geometry" />
        </mxCell>
        <mxCell id="rG8OEWCJURfN_-2mEjIc-19" style="edgeStyle=orthogonalEdgeStyle;rounded=0;orthogonalLoop=1;jettySize=auto;html=1;entryX=1;entryY=0.25;entryDx=0;entryDy=0;exitX=0.5;exitY=0;exitDx=0;exitDy=0;" edge="1" parent="1" source="rG8OEWCJURfN_-2mEjIc-13" target="rG8OEWCJURfN_-2mEjIc-8">
          <mxGeometry relative="1" as="geometry" />
        </mxCell>
        <mxCell id="rG8OEWCJURfN_-2mEjIc-21" value="" style="edgeStyle=orthogonalEdgeStyle;rounded=0;orthogonalLoop=1;jettySize=auto;html=1;" edge="1" parent="1" source="rG8OEWCJURfN_-2mEjIc-13" target="rG8OEWCJURfN_-2mEjIc-20">
          <mxGeometry relative="1" as="geometry" />
        </mxCell>
        <mxCell id="rG8OEWCJURfN_-2mEjIc-13" value="Commit" style="whiteSpace=wrap;html=1;" vertex="1" parent="1">
          <mxGeometry x="400" y="150" width="120" height="60" as="geometry" />
        </mxCell>
        <mxCell id="rG8OEWCJURfN_-2mEjIc-18" value="" style="edgeStyle=orthogonalEdgeStyle;rounded=0;orthogonalLoop=1;jettySize=auto;html=1;" edge="1" parent="1" source="rG8OEWCJURfN_-2mEjIc-15" target="rG8OEWCJURfN_-2mEjIc-17">
          <mxGeometry relative="1" as="geometry" />
        </mxCell>
        <mxCell id="rG8OEWCJURfN_-2mEjIc-15" value="CI/CD Pipepline" style="whiteSpace=wrap;html=1;" vertex="1" parent="1">
          <mxGeometry x="630" y="150" width="120" height="60" as="geometry" />
        </mxCell>
        <mxCell id="rG8OEWCJURfN_-2mEjIc-17" value="Artifacts" style="whiteSpace=wrap;html=1;" vertex="1" parent="1">
          <mxGeometry x="830" y="150" width="120" height="60" as="geometry" />
        </mxCell>
        <mxCell id="rG8OEWCJURfN_-2mEjIc-23" value="" style="edgeStyle=orthogonalEdgeStyle;rounded=0;orthogonalLoop=1;jettySize=auto;html=1;" edge="1" parent="1" source="rG8OEWCJURfN_-2mEjIc-20" target="rG8OEWCJURfN_-2mEjIc-22">
          <mxGeometry relative="1" as="geometry" />
        </mxCell>
        <mxCell id="rG8OEWCJURfN_-2mEjIc-20" value="PR" style="whiteSpace=wrap;html=1;" vertex="1" parent="1">
          <mxGeometry x="370" y="260" width="120" height="60" as="geometry" />
        </mxCell>
        <mxCell id="rG8OEWCJURfN_-2mEjIc-24" style="edgeStyle=orthogonalEdgeStyle;rounded=0;orthogonalLoop=1;jettySize=auto;html=1;entryX=1;entryY=0;entryDx=0;entryDy=0;" edge="1" parent="1" source="rG8OEWCJURfN_-2mEjIc-22" target="rG8OEWCJURfN_-2mEjIc-8">
          <mxGeometry relative="1" as="geometry">
            <Array as="points">
              <mxPoint x="560" y="10" />
              <mxPoint x="360" y="10" />
            </Array>
          </mxGeometry>
        </mxCell>
        <mxCell id="rG8OEWCJURfN_-2mEjIc-25" style="edgeStyle=orthogonalEdgeStyle;rounded=0;orthogonalLoop=1;jettySize=auto;html=1;entryX=0;entryY=0.25;entryDx=0;entryDy=0;" edge="1" parent="1" source="rG8OEWCJURfN_-2mEjIc-22" target="rG8OEWCJURfN_-2mEjIc-15">
          <mxGeometry relative="1" as="geometry" />
        </mxCell>
        <mxCell id="rG8OEWCJURfN_-2mEjIc-22" value="Push" style="whiteSpace=wrap;html=1;" vertex="1" parent="1">
          <mxGeometry x="580" y="260" width="120" height="60" as="geometry" />
        </mxCell>
        <mxCell id="rG8OEWCJURfN_-2mEjIc-29" value="" style="edgeStyle=orthogonalEdgeStyle;rounded=0;orthogonalLoop=1;jettySize=auto;html=1;" edge="1" parent="1" source="rG8OEWCJURfN_-2mEjIc-26" target="rG8OEWCJURfN_-2mEjIc-28">
          <mxGeometry relative="1" as="geometry" />
        </mxCell>
        <mxCell id="rG8OEWCJURfN_-2mEjIc-31" value="" style="edgeStyle=orthogonalEdgeStyle;rounded=0;orthogonalLoop=1;jettySize=auto;html=1;" edge="1" parent="1" source="rG8OEWCJURfN_-2mEjIc-26" target="rG8OEWCJURfN_-2mEjIc-30">
          <mxGeometry relative="1" as="geometry" />
        </mxCell>
        <mxCell id="rG8OEWCJURfN_-2mEjIc-26" value="Microservice -&amp;gt; .net Core" style="whiteSpace=wrap;html=1;" vertex="1" parent="1">
          <mxGeometry x="34" y="500" width="120" height="60" as="geometry" />
        </mxCell>
        <mxCell id="rG8OEWCJURfN_-2mEjIc-28" value="Run Locally with Some port e.g. locahost:5001/products/getproducts&lt;br&gt;Kestral server" style="rounded=1;whiteSpace=wrap;html=1;fillColor=#d5e8d4;strokeColor=#82b366;" vertex="1" parent="1">
          <mxGeometry x="28" y="680" width="206" height="80" as="geometry" />
        </mxCell>
        <mxCell id="rG8OEWCJURfN_-2mEjIc-34" value="" style="edgeStyle=orthogonalEdgeStyle;rounded=0;orthogonalLoop=1;jettySize=auto;html=1;" edge="1" parent="1" source="rG8OEWCJURfN_-2mEjIc-30" target="rG8OEWCJURfN_-2mEjIc-33">
          <mxGeometry relative="1" as="geometry" />
        </mxCell>
        <mxCell id="rG8OEWCJURfN_-2mEjIc-35" value="Docker Run" style="edgeLabel;html=1;align=center;verticalAlign=middle;resizable=0;points=[];" vertex="1" connectable="0" parent="rG8OEWCJURfN_-2mEjIc-34">
          <mxGeometry x="-0.2233" y="3" relative="1" as="geometry">
            <mxPoint as="offset" />
          </mxGeometry>
        </mxCell>
        <mxCell id="rG8OEWCJURfN_-2mEjIc-30" value="Docker File&lt;br&gt;[Set of instruction which help to make image]" style="shape=parallelogram;perimeter=parallelogramPerimeter;whiteSpace=wrap;html=1;fixedSize=1;" vertex="1" parent="1">
          <mxGeometry x="234" y="500" width="146" height="60" as="geometry" />
        </mxCell>
        <mxCell id="rG8OEWCJURfN_-2mEjIc-41" value="" style="edgeStyle=orthogonalEdgeStyle;rounded=0;orthogonalLoop=1;jettySize=auto;html=1;" edge="1" parent="1" source="rG8OEWCJURfN_-2mEjIc-33" target="rG8OEWCJURfN_-2mEjIc-40">
          <mxGeometry relative="1" as="geometry" />
        </mxCell>
        <mxCell id="rG8OEWCJURfN_-2mEjIc-43" value="" style="edgeStyle=orthogonalEdgeStyle;rounded=0;orthogonalLoop=1;jettySize=auto;html=1;" edge="1" parent="1" source="rG8OEWCJURfN_-2mEjIc-33" target="rG8OEWCJURfN_-2mEjIc-40">
          <mxGeometry relative="1" as="geometry" />
        </mxCell>
        <mxCell id="rG8OEWCJURfN_-2mEjIc-45" value="" style="edgeStyle=orthogonalEdgeStyle;rounded=0;orthogonalLoop=1;jettySize=auto;html=1;" edge="1" parent="1" source="rG8OEWCJURfN_-2mEjIc-33" target="rG8OEWCJURfN_-2mEjIc-44">
          <mxGeometry relative="1" as="geometry" />
        </mxCell>
        <mxCell id="rG8OEWCJURfN_-2mEjIc-48" value="" style="edgeStyle=orthogonalEdgeStyle;rounded=0;orthogonalLoop=1;jettySize=auto;html=1;" edge="1" parent="1" source="rG8OEWCJURfN_-2mEjIc-33" target="rG8OEWCJURfN_-2mEjIc-47">
          <mxGeometry relative="1" as="geometry" />
        </mxCell>
        <mxCell id="rG8OEWCJURfN_-2mEjIc-50" value="" style="edgeStyle=orthogonalEdgeStyle;rounded=0;orthogonalLoop=1;jettySize=auto;html=1;" edge="1" parent="1" source="rG8OEWCJURfN_-2mEjIc-33" target="rG8OEWCJURfN_-2mEjIc-49">
          <mxGeometry relative="1" as="geometry" />
        </mxCell>
        <mxCell id="rG8OEWCJURfN_-2mEjIc-57" style="edgeStyle=orthogonalEdgeStyle;rounded=0;orthogonalLoop=1;jettySize=auto;html=1;entryX=0.5;entryY=1;entryDx=0;entryDy=0;" edge="1" parent="1" source="rG8OEWCJURfN_-2mEjIc-33" target="rG8OEWCJURfN_-2mEjIc-56">
          <mxGeometry relative="1" as="geometry" />
        </mxCell>
        <mxCell id="rG8OEWCJURfN_-2mEjIc-33" value="Image&lt;br&gt;[Install MS .net SDK and Runtime]" style="whiteSpace=wrap;html=1;" vertex="1" parent="1">
          <mxGeometry x="473" y="500" width="120" height="60" as="geometry" />
        </mxCell>
        <mxCell id="rG8OEWCJURfN_-2mEjIc-37" style="edgeStyle=orthogonalEdgeStyle;rounded=0;orthogonalLoop=1;jettySize=auto;html=1;" edge="1" parent="1" source="rG8OEWCJURfN_-2mEjIc-36" target="rG8OEWCJURfN_-2mEjIc-17">
          <mxGeometry relative="1" as="geometry" />
        </mxCell>
        <mxCell id="rG8OEWCJURfN_-2mEjIc-38" value="user" style="edgeLabel;html=1;align=center;verticalAlign=middle;resizable=0;points=[];" vertex="1" connectable="0" parent="rG8OEWCJURfN_-2mEjIc-37">
          <mxGeometry x="-0.1989" y="-2" relative="1" as="geometry">
            <mxPoint y="-1" as="offset" />
          </mxGeometry>
        </mxCell>
        <mxCell id="rG8OEWCJURfN_-2mEjIc-36" value="BS" style="whiteSpace=wrap;html=1;" vertex="1" parent="1">
          <mxGeometry x="1110" y="30" width="120" height="60" as="geometry" />
        </mxCell>
        <mxCell id="rG8OEWCJURfN_-2mEjIc-40" value="Container" style="ellipse;whiteSpace=wrap;html=1;" vertex="1" parent="1">
          <mxGeometry x="760" y="600" width="80" height="80" as="geometry" />
        </mxCell>
        <mxCell id="rG8OEWCJURfN_-2mEjIc-44" value="Container" style="ellipse;whiteSpace=wrap;html=1;" vertex="1" parent="1">
          <mxGeometry x="930" y="600" width="80" height="80" as="geometry" />
        </mxCell>
        <mxCell id="rG8OEWCJURfN_-2mEjIc-52" value="" style="edgeStyle=orthogonalEdgeStyle;rounded=0;orthogonalLoop=1;jettySize=auto;html=1;" edge="1" parent="1" source="rG8OEWCJURfN_-2mEjIc-47" target="rG8OEWCJURfN_-2mEjIc-51">
          <mxGeometry relative="1" as="geometry" />
        </mxCell>
        <mxCell id="rG8OEWCJURfN_-2mEjIc-47" value="Windows" style="whiteSpace=wrap;html=1;" vertex="1" parent="1">
          <mxGeometry x="370" y="640" width="120" height="60" as="geometry" />
        </mxCell>
        <mxCell id="rG8OEWCJURfN_-2mEjIc-54" value="" style="edgeStyle=orthogonalEdgeStyle;rounded=0;orthogonalLoop=1;jettySize=auto;html=1;" edge="1" parent="1" source="rG8OEWCJURfN_-2mEjIc-49" target="rG8OEWCJURfN_-2mEjIc-53">
          <mxGeometry relative="1" as="geometry" />
        </mxCell>
        <mxCell id="rG8OEWCJURfN_-2mEjIc-49" value="Linux" style="whiteSpace=wrap;html=1;" vertex="1" parent="1">
          <mxGeometry x="530" y="640" width="120" height="60" as="geometry" />
        </mxCell>
        <mxCell id="rG8OEWCJURfN_-2mEjIc-51" value="Size [3-4 GB]" style="whiteSpace=wrap;html=1;" vertex="1" parent="1">
          <mxGeometry x="370" y="750" width="120" height="60" as="geometry" />
        </mxCell>
        <mxCell id="rG8OEWCJURfN_-2mEjIc-53" value="Size[ 300MB]" style="whiteSpace=wrap;html=1;" vertex="1" parent="1">
          <mxGeometry x="530" y="750" width="120" height="60" as="geometry" />
        </mxCell>
        <mxCell id="rG8OEWCJURfN_-2mEjIc-55" value="1. My Linux OS&lt;br&gt;2. Microsoft Runtime &amp;amp; Sdk" style="rounded=0;whiteSpace=wrap;html=1;" vertex="1" parent="1">
          <mxGeometry x="360" y="400" width="320" height="70" as="geometry" />
        </mxCell>
        <mxCell id="rG8OEWCJURfN_-2mEjIc-56" value="Docker Image repo" style="whiteSpace=wrap;html=1;" vertex="1" parent="1">
          <mxGeometry x="740" y="400" width="120" height="60" as="geometry" />
        </mxCell>
        <mxCell id="rG8OEWCJURfN_-2mEjIc-58" value="Azure Container Registry" style="whiteSpace=wrap;html=1;" vertex="1" parent="1">
          <mxGeometry x="890" y="400" width="120" height="60" as="geometry" />
        </mxCell>
        <mxCell id="rG8OEWCJURfN_-2mEjIc-59" value="AWS ECR" style="whiteSpace=wrap;html=1;" vertex="1" parent="1">
          <mxGeometry x="810" y="320" width="120" height="60" as="geometry" />
        </mxCell>
        <mxCell id="rG8OEWCJURfN_-2mEjIc-60" value="Container" style="text;html=1;strokeColor=none;fillColor=none;align=center;verticalAlign=middle;whiteSpace=wrap;rounded=0;" vertex="1" parent="1">
          <mxGeometry x="28" y="340" width="60" height="30" as="geometry" />
        </mxCell>
        <mxCell id="rG8OEWCJURfN_-2mEjIc-61" value="MySQL DB" style="whiteSpace=wrap;html=1;" vertex="1" parent="1">
          <mxGeometry x="130" y="400" width="120" height="60" as="geometry" />
        </mxCell>
        <mxCell id="rG8OEWCJURfN_-2mEjIc-67" value="" style="edgeStyle=orthogonalEdgeStyle;rounded=0;orthogonalLoop=1;jettySize=auto;html=1;" edge="1" parent="1" source="rG8OEWCJURfN_-2mEjIc-62" target="rG8OEWCJURfN_-2mEjIc-66">
          <mxGeometry relative="1" as="geometry" />
        </mxCell>
        <mxCell id="rG8OEWCJURfN_-2mEjIc-62" value="Microservice -&amp;gt; .net Core" style="whiteSpace=wrap;html=1;" vertex="1" parent="1">
          <mxGeometry x="60" y="960" width="120" height="60" as="geometry" />
        </mxCell>
        <mxCell id="rG8OEWCJURfN_-2mEjIc-65" value="" style="edgeStyle=orthogonalEdgeStyle;rounded=0;orthogonalLoop=1;jettySize=auto;html=1;" edge="1" parent="1" source="rG8OEWCJURfN_-2mEjIc-63" target="rG8OEWCJURfN_-2mEjIc-64">
          <mxGeometry relative="1" as="geometry" />
        </mxCell>
        <mxCell id="rG8OEWCJURfN_-2mEjIc-63" value="MySQL DB" style="whiteSpace=wrap;html=1;" vertex="1" parent="1">
          <mxGeometry x="60" y="870" width="120" height="60" as="geometry" />
        </mxCell>
        <mxCell id="rG8OEWCJURfN_-2mEjIc-69" style="edgeStyle=orthogonalEdgeStyle;rounded=0;orthogonalLoop=1;jettySize=auto;html=1;" edge="1" parent="1" source="rG8OEWCJURfN_-2mEjIc-64" target="rG8OEWCJURfN_-2mEjIc-68">
          <mxGeometry relative="1" as="geometry" />
        </mxCell>
        <mxCell id="rG8OEWCJURfN_-2mEjIc-64" value="MYSQL Image [Docker HUb]" style="whiteSpace=wrap;html=1;" vertex="1" parent="1">
          <mxGeometry x="260" y="870" width="120" height="60" as="geometry" />
        </mxCell>
        <mxCell id="rG8OEWCJURfN_-2mEjIc-70" style="edgeStyle=orthogonalEdgeStyle;rounded=0;orthogonalLoop=1;jettySize=auto;html=1;" edge="1" parent="1" source="rG8OEWCJURfN_-2mEjIc-66">
          <mxGeometry relative="1" as="geometry">
            <mxPoint x="470" y="960" as="targetPoint" />
          </mxGeometry>
        </mxCell>
        <mxCell id="rG8OEWCJURfN_-2mEjIc-66" value="Docker HUB" style="whiteSpace=wrap;html=1;" vertex="1" parent="1">
          <mxGeometry x="260" y="960" width="120" height="60" as="geometry" />
        </mxCell>
        <mxCell id="rG8OEWCJURfN_-2mEjIc-68" value="DockerCompose" style="whiteSpace=wrap;html=1;" vertex="1" parent="1">
          <mxGeometry x="473" y="910" width="120" height="60" as="geometry" />
        </mxCell>
        <mxCell id="rG8OEWCJURfN_-2mEjIc-73" value="Kubernetes" style="text;html=1;strokeColor=none;fillColor=none;align=center;verticalAlign=middle;whiteSpace=wrap;rounded=0;" vertex="1" parent="1">
          <mxGeometry x="490" y="1169" width="60" height="30" as="geometry" />
        </mxCell>
        <mxCell id="rG8OEWCJURfN_-2mEjIc-74" value="Private" style="verticalLabelPosition=bottom;html=1;verticalAlign=top;align=center;strokeColor=#BD7000;fillColor=#f0a30a;shape=mxgraph.azure.virtual_machine;fontColor=#000000;" vertex="1" parent="1">
          <mxGeometry x="590" y="1180" width="460" height="220" as="geometry" />
        </mxCell>
        <mxCell id="rG8OEWCJURfN_-2mEjIc-75" value="Product&amp;nbsp; POD&lt;br&gt;- Container -[5001]&lt;br&gt;- Agent Container [Logging]" style="rounded=0;whiteSpace=wrap;html=1;" vertex="1" parent="1">
          <mxGeometry x="596" y="1250" width="164" height="50" as="geometry" />
        </mxCell>
        <mxCell id="rG8OEWCJURfN_-2mEjIc-76" value="Order POD&lt;br&gt;- Container [5002]&lt;br&gt;&amp;nbsp;Agent Container [Logging]" style="rounded=0;whiteSpace=wrap;html=1;" vertex="1" parent="1">
          <mxGeometry x="596" y="1330" width="144" height="60" as="geometry" />
        </mxCell>
        <mxCell id="rG8OEWCJURfN_-2mEjIc-77" value="DB MySQL Container [3006]" style="rounded=0;whiteSpace=wrap;html=1;" vertex="1" parent="1">
          <mxGeometry x="350" y="1285" width="70" height="65" as="geometry" />
        </mxCell>
        <mxCell id="rG8OEWCJURfN_-2mEjIc-86" style="edgeStyle=orthogonalEdgeStyle;rounded=0;orthogonalLoop=1;jettySize=auto;html=1;entryX=0.75;entryY=1;entryDx=0;entryDy=0;fillColor=#d80073;strokeColor=#A50040;" edge="1" parent="1" source="rG8OEWCJURfN_-2mEjIc-81" target="rG8OEWCJURfN_-2mEjIc-77">
          <mxGeometry relative="1" as="geometry" />
        </mxCell>
        <mxCell id="rG8OEWCJURfN_-2mEjIc-87" value="white list few ips" style="edgeLabel;html=1;align=center;verticalAlign=middle;resizable=0;points=[];" vertex="1" connectable="0" parent="rG8OEWCJURfN_-2mEjIc-86">
          <mxGeometry x="-0.1504" y="-1" relative="1" as="geometry">
            <mxPoint x="-20" y="9" as="offset" />
          </mxGeometry>
        </mxCell>
        <mxCell id="rG8OEWCJURfN_-2mEjIc-81" value="Run Locally with Some port e.g. locahost:5001/products/getproducts&lt;br&gt;Kestral server&lt;br&gt;&lt;br&gt;localhost:3008" style="rounded=1;whiteSpace=wrap;html=1;fillColor=#d5e8d4;strokeColor=#82b366;" vertex="1" parent="1">
          <mxGeometry x="-83" y="1430" width="206" height="80" as="geometry" />
        </mxCell>
        <mxCell id="rG8OEWCJURfN_-2mEjIc-84" value="Azure" style="text;html=1;strokeColor=none;fillColor=none;align=center;verticalAlign=middle;whiteSpace=wrap;rounded=0;" vertex="1" parent="1">
          <mxGeometry x="1080" y="1111" width="60" height="30" as="geometry" />
        </mxCell>
        <mxCell id="rG8OEWCJURfN_-2mEjIc-85" value="&amp;lt;Manage vs Unmanaged cloud DB&amp;gt;" style="text;html=1;strokeColor=none;fillColor=none;align=center;verticalAlign=middle;whiteSpace=wrap;rounded=0;" vertex="1" parent="1">
          <mxGeometry x="1140" y="1106" width="220" height="40" as="geometry" />
        </mxCell>
        <mxCell id="rG8OEWCJURfN_-2mEjIc-113" value="" style="edgeStyle=orthogonalEdgeStyle;rounded=0;orthogonalLoop=1;jettySize=auto;html=1;" edge="1" parent="1" source="rG8OEWCJURfN_-2mEjIc-88" target="rG8OEWCJURfN_-2mEjIc-112">
          <mxGeometry relative="1" as="geometry" />
        </mxCell>
        <mxCell id="rG8OEWCJURfN_-2mEjIc-88" value="DB MySQL POD Container [3006]" style="rounded=0;whiteSpace=wrap;html=1;fillColor=#1ba1e2;fontColor=#ffffff;strokeColor=#006EAF;" vertex="1" parent="1">
          <mxGeometry x="850" y="1320" width="100" height="65" as="geometry" />
        </mxCell>
        <mxCell id="rG8OEWCJURfN_-2mEjIc-90" value="Product&amp;nbsp; POD&lt;br&gt;- Container -[5010]&lt;br&gt;- Agent Container [Logging]" style="rounded=0;whiteSpace=wrap;html=1;" vertex="1" parent="1">
          <mxGeometry x="776" y="1250" width="164" height="50" as="geometry" />
        </mxCell>
        <mxCell id="rG8OEWCJURfN_-2mEjIc-92" style="edgeStyle=orthogonalEdgeStyle;rounded=0;orthogonalLoop=1;jettySize=auto;html=1;entryX=0;entryY=0.5;entryDx=0;entryDy=0;" edge="1" parent="1" source="rG8OEWCJURfN_-2mEjIc-91" target="rG8OEWCJURfN_-2mEjIc-2">
          <mxGeometry relative="1" as="geometry" />
        </mxCell>
        <mxCell id="rG8OEWCJURfN_-2mEjIc-91" value="Client&lt;br&gt;https://localhost;5001&lt;br&gt;&lt;br style=&quot;border-color: var(--border-color);&quot;&gt;https://app.kyocera.com//products" style="rounded=1;whiteSpace=wrap;html=1;fillColor=#60a917;fontColor=#ffffff;strokeColor=#2D7600;" vertex="1" parent="1">
          <mxGeometry x="-70" y="1280" width="180" height="70" as="geometry" />
        </mxCell>
        <mxCell id="rG8OEWCJURfN_-2mEjIc-94" style="edgeStyle=orthogonalEdgeStyle;rounded=0;orthogonalLoop=1;jettySize=auto;html=1;" edge="1" parent="1" source="rG8OEWCJURfN_-2mEjIc-93" target="rG8OEWCJURfN_-2mEjIc-75">
          <mxGeometry relative="1" as="geometry" />
        </mxCell>
        <mxCell id="rG8OEWCJURfN_-2mEjIc-95" style="edgeStyle=orthogonalEdgeStyle;rounded=0;orthogonalLoop=1;jettySize=auto;html=1;entryX=0.5;entryY=0;entryDx=0;entryDy=0;" edge="1" parent="1" source="rG8OEWCJURfN_-2mEjIc-93" target="rG8OEWCJURfN_-2mEjIc-90">
          <mxGeometry relative="1" as="geometry" />
        </mxCell>
        <mxCell id="rG8OEWCJURfN_-2mEjIc-93" value="Product&amp;nbsp; Service" style="rounded=0;whiteSpace=wrap;html=1;" vertex="1" parent="1">
          <mxGeometry x="656" y="1190" width="130" height="20" as="geometry" />
        </mxCell>
        <mxCell id="rG8OEWCJURfN_-2mEjIc-97" value="Private" style="text;html=1;strokeColor=none;fillColor=none;align=center;verticalAlign=middle;whiteSpace=wrap;rounded=0;" vertex="1" parent="1">
          <mxGeometry x="970" y="1190" width="60" height="30" as="geometry" />
        </mxCell>
        <mxCell id="rG8OEWCJURfN_-2mEjIc-99" style="edgeStyle=orthogonalEdgeStyle;rounded=0;orthogonalLoop=1;jettySize=auto;html=1;" edge="1" parent="1" source="rG8OEWCJURfN_-2mEjIc-98" target="rG8OEWCJURfN_-2mEjIc-93">
          <mxGeometry relative="1" as="geometry" />
        </mxCell>
        <mxCell id="rG8OEWCJURfN_-2mEjIc-98" value="" style="outlineConnect=0;dashed=0;verticalLabelPosition=bottom;verticalAlign=top;align=center;html=1;shape=mxgraph.aws3.application_load_balancer;fillColor=#F58534;gradientColor=none;" vertex="1" parent="1">
          <mxGeometry x="686.5" y="1080" width="69" height="72" as="geometry" />
        </mxCell>
        <mxCell id="rG8OEWCJURfN_-2mEjIc-105" style="edgeStyle=orthogonalEdgeStyle;rounded=0;orthogonalLoop=1;jettySize=auto;html=1;" edge="1" parent="1" source="rG8OEWCJURfN_-2mEjIc-102" target="rG8OEWCJURfN_-2mEjIc-98">
          <mxGeometry relative="1" as="geometry" />
        </mxCell>
        <mxCell id="rG8OEWCJURfN_-2mEjIc-102" value="&lt;br&gt;https://app.kyocera.com/" style="rounded=1;whiteSpace=wrap;html=1;fillColor=#60a917;fontColor=#ffffff;strokeColor=#2D7600;" vertex="1" parent="1">
          <mxGeometry x="463" y="1086" width="140" height="60" as="geometry" />
        </mxCell>
        <mxCell id="rG8OEWCJURfN_-2mEjIc-109" style="edgeStyle=orthogonalEdgeStyle;rounded=0;orthogonalLoop=1;jettySize=auto;html=1;" edge="1" parent="1" source="rG8OEWCJURfN_-2mEjIc-106" target="rG8OEWCJURfN_-2mEjIc-76">
          <mxGeometry relative="1" as="geometry" />
        </mxCell>
        <mxCell id="rG8OEWCJURfN_-2mEjIc-110" style="edgeStyle=orthogonalEdgeStyle;rounded=0;orthogonalLoop=1;jettySize=auto;html=1;" edge="1" parent="1" source="rG8OEWCJURfN_-2mEjIc-106" target="rG8OEWCJURfN_-2mEjIc-90">
          <mxGeometry relative="1" as="geometry">
            <Array as="points">
              <mxPoint x="771" y="1380" />
              <mxPoint x="780" y="1380" />
            </Array>
          </mxGeometry>
        </mxCell>
        <mxCell id="rG8OEWCJURfN_-2mEjIc-106" value="Public" style="sketch=0;outlineConnect=0;fontColor=#232F3E;gradientColor=none;fillColor=#E7157B;strokeColor=none;dashed=0;verticalLabelPosition=bottom;verticalAlign=top;align=center;html=1;fontSize=12;fontStyle=0;aspect=fixed;pointerEvents=1;shape=mxgraph.aws4.cloudwatch_logs;" vertex="1" parent="1">
          <mxGeometry x="740" y="1462" width="78" height="58" as="geometry" />
        </mxCell>
        <mxCell id="rG8OEWCJURfN_-2mEjIc-108" style="edgeStyle=orthogonalEdgeStyle;rounded=0;orthogonalLoop=1;jettySize=auto;html=1;" edge="1" parent="1" source="rG8OEWCJURfN_-2mEjIc-107" target="rG8OEWCJURfN_-2mEjIc-106">
          <mxGeometry relative="1" as="geometry" />
        </mxCell>
        <mxCell id="rG8OEWCJURfN_-2mEjIc-107" value="&lt;br&gt;https://applogs.kyocera.com/" style="rounded=1;whiteSpace=wrap;html=1;fillColor=#60a917;fontColor=#ffffff;strokeColor=#2D7600;" vertex="1" parent="1">
          <mxGeometry x="490" y="1470" width="170" height="60" as="geometry" />
        </mxCell>
        <mxCell id="rG8OEWCJURfN_-2mEjIc-111" value="Prometheus&lt;br&gt;Grafana&lt;br&gt;Jaeger&lt;br&gt;Kiali" style="rounded=1;whiteSpace=wrap;html=1;fillColor=#60a917;fontColor=#ffffff;strokeColor=#2D7600;" vertex="1" parent="1">
          <mxGeometry x="850" y="1462" width="170" height="60" as="geometry" />
        </mxCell>
        <mxCell id="rG8OEWCJURfN_-2mEjIc-112" value="Volume" style="shape=document;whiteSpace=wrap;html=1;boundedLbl=1;rounded=0;" vertex="1" parent="1">
          <mxGeometry x="980" y="1320" width="60" height="50" as="geometry" />
        </mxCell>
        <mxCell id="rG8OEWCJURfN_-2mEjIc-114" value="" style="verticalLabelPosition=bottom;html=1;verticalAlign=top;align=center;strokeColor=none;fillColor=#00BEF2;shape=mxgraph.azure.mysql_database;" vertex="1" parent="1">
          <mxGeometry x="1222" y="1235" width="78" height="85" as="geometry" />
        </mxCell>
        <mxCell id="rG8OEWCJURfN_-2mEjIc-117" value="Cloud Private Network" style="text;html=1;strokeColor=none;fillColor=none;align=center;verticalAlign=middle;whiteSpace=wrap;rounded=0;" vertex="1" parent="1">
          <mxGeometry x="1230" y="1169" width="120" height="31" as="geometry" />
        </mxCell>
        <mxCell id="rG8OEWCJURfN_-2mEjIc-118" value="Cloud Managed DB" style="text;html=1;strokeColor=none;fillColor=none;align=center;verticalAlign=middle;whiteSpace=wrap;rounded=0;" vertex="1" parent="1">
          <mxGeometry x="1231" y="1330" width="60" height="30" as="geometry" />
        </mxCell>
        <mxCell id="rG8OEWCJURfN_-2mEjIc-119" value="1. Manaing Authemated backup&lt;br&gt;2. Automated scaling" style="text;html=1;strokeColor=none;fillColor=none;align=center;verticalAlign=middle;whiteSpace=wrap;rounded=0;" vertex="1" parent="1">
          <mxGeometry x="1310" y="1250" width="80" height="80" as="geometry" />
        </mxCell>
        <mxCell id="rG8OEWCJURfN_-2mEjIc-121" style="edgeStyle=orthogonalEdgeStyle;rounded=0;orthogonalLoop=1;jettySize=auto;html=1;entryX=0;entryY=0.5;entryDx=0;entryDy=0;entryPerimeter=0;" edge="1" parent="1" source="rG8OEWCJURfN_-2mEjIc-90" target="rG8OEWCJURfN_-2mEjIc-114">
          <mxGeometry relative="1" as="geometry" />
        </mxCell>
        <mxCell id="rG8OEWCJURfN_-2mEjIc-122" value="" style="rounded=0;whiteSpace=wrap;html=1;fillColor=#d5e8d4;strokeColor=#82b366;" vertex="1" parent="1">
          <mxGeometry x="480" y="1600" width="320" height="250" as="geometry" />
        </mxCell>
        <mxCell id="rG8OEWCJURfN_-2mEjIc-123" value="Security Policy- Inbound Rule only for local balancer" style="verticalLabelPosition=bottom;html=1;verticalAlign=top;align=center;strokeColor=#BD7000;fillColor=#f0a30a;shape=mxgraph.azure.virtual_machine;fontColor=#000000;" vertex="1" parent="1">
          <mxGeometry x="530" y="1610" width="210" height="200" as="geometry" />
        </mxCell>
        <mxCell id="rG8OEWCJURfN_-2mEjIc-124" value="Product&amp;nbsp; Container [5001]" style="rounded=0;whiteSpace=wrap;html=1;" vertex="1" parent="1">
          <mxGeometry x="542.5" y="1630" width="144" height="30" as="geometry" />
        </mxCell>
        <mxCell id="rG8OEWCJURfN_-2mEjIc-126" value="Order Container [5002]" style="rounded=0;whiteSpace=wrap;html=1;" vertex="1" parent="1">
          <mxGeometry x="545" y="1754" width="65" height="46" as="geometry" />
        </mxCell>
        <mxCell id="rG8OEWCJURfN_-2mEjIc-128" style="edgeStyle=orthogonalEdgeStyle;rounded=0;orthogonalLoop=1;jettySize=auto;html=1;" edge="1" parent="1" source="rG8OEWCJURfN_-2mEjIc-127" target="rG8OEWCJURfN_-2mEjIc-123">
          <mxGeometry relative="1" as="geometry" />
        </mxCell>
        <mxCell id="rG8OEWCJURfN_-2mEjIc-127" value="" style="outlineConnect=0;dashed=0;verticalLabelPosition=bottom;verticalAlign=top;align=center;html=1;shape=mxgraph.aws3.application_load_balancer;fillColor=#F58534;gradientColor=none;" vertex="1" parent="1">
          <mxGeometry x="380" y="1689" width="69" height="72" as="geometry" />
        </mxCell>
      </root>
    </mxGraphModel>
  </diagram>
</mxfile>
